<?xml version="1.0" encoding="utf-8"?>
<!-- Generator: Adobe Illustrator 21.1.0, SVG Export Plug-In . SVG Version: 6.00 Build 0)  -->
<svg version="1.1" id="Ebene_1" xmlns="http://www.w3.org/2000/svg" xmlns:xlink="http://www.w3.org/1999/xlink" x="0px" y="0px"
	 viewBox="0 0 2979.9 1004.8" enable-background="new 0 0 2979.9 1004.8" xml:space="preserve">
<g id="oAb5MX_1_">
	
		<image overflow="visible" width="2258" height="1592" id="oAb5MX_2_" xlink:href="E8BC59D004BADB1D.png"  transform="matrix(1.2721 0 0 1.2721 3558.1536 7310.7749)">
	</image>
</g>
<path fill="#28AB7F" d="M2699.6,9218.3h-6v-963.2H401.5v963.2h-6v-969.2h724.7c48.7-64.6,112.3-118.2,184.1-154.9
	c36.9-18.9,75.9-33.4,116.1-43.2c41.4-10.1,84.1-15.2,127.1-15.2s85.7,5.1,127.1,15.2c40.2,9.8,79.2,24.3,116.1,43.2
	c71.8,36.7,135.5,90.3,184.1,154.9h724.7V9218.3z M1127.8,8249.1h839.6c-47.8-62.3-109.7-113.9-179.3-149.6
	c-36.5-18.7-75.1-33-114.8-42.7c-40.9-10-83.2-15-125.7-15s-84.8,5.1-125.7,15c-39.7,9.7-78.4,24.1-114.8,42.7
	C1237.4,8135.2,1175.5,8186.8,1127.8,8249.1z"/>
<path fill="none" stroke="#28AB7F" stroke-width="6" d="M-4665.5,8250.3 M-2367.4,8250.3v-966.2h-2298.1v966.2 M-3090.7,7284
	c-97-129.4-251.6-213.2-425.7-213.2s-328.8,83.8-425.7,213.2"/>
<path opacity="0.7" fill="#FFFFFF" d="M2980.5,1896.1c-50.6-12-100.2-28.3-148.6-48.7c-112.5-47.6-213.5-115.7-300.3-202.5
	c-86.8-86.8-154.9-187.8-202.5-300.3c-45.6-107.9-70.4-222.1-73.8-339.7h725.2v-56h-725.2c3.4-117.7,28.2-231.8,73.8-339.7
	c47.6-112.5,115.7-213.5,202.5-300.3s187.8-154.9,300.3-202.5c48.4-20.5,98-36.7,148.6-48.7V0c-58.1,13-115.1,31.2-170.4,54.6
	C2690.9,105,2583.9,177.2,2492,269.1c-91.9,91.9-164.1,198.9-214.5,318.1c-48.6,114.9-74.9,236.4-78.3,361.6H-6.7v56h2206
	c3.4,125.2,29.7,246.7,78.3,361.6c50.4,119.2,122.6,226.2,214.5,318.1c91.9,91.9,198.9,164.1,318.1,214.5
	c55.4,23.4,112.3,41.6,170.4,54.6V1896.1z"/>
</svg>
